<svg width="16" height="16" fill="none" xmlns="http://www.w3.org/2000/svg"><path fill-rule="evenodd" clip-rule="evenodd" d="M8 0C5.83 0 5.56 0 4.7.05 1.8.18.18 1.79.05 4.7 0 5.56 0 5.83 0 8s0 2.45.05 3.3c.13 2.9 1.74 4.52 4.65 4.65.86.04 1.13.05 3.3.05s2.45 0 3.3-.05c2.9-.13 4.52-1.74 4.65-4.65.04-.85.05-1.13.05-3.3s0-2.44-.05-3.3C15.82 1.8 14.21.18 11.3.05 10.45 0 10.17 0 8 0Zm0 1.44c2.14 0 2.39.01 3.23.05 2.17.1 3.18 1.13 3.28 3.28.04.84.05 1.1.05 3.23 0 2.14 0 2.39-.05 3.23-.1 2.15-1.1 3.18-3.28 3.28-.84.04-1.1.05-3.23.05-2.14 0-2.39 0-3.23-.05-2.18-.1-3.18-1.13-3.28-3.28A56.6 56.6 0 0 1 1.44 8c0-2.14.01-2.39.05-3.23.1-2.16 1.1-3.18 3.28-3.28.84-.04 1.1-.05 3.23-.05ZM3.9 8a4.1 4.1 0 1 1 8.2 0 4.1 4.1 0 0 1-8.2 0ZM8 10.67a2.67 2.67 0 1 1 0-5.34 2.67 2.67 0 0 1 0 5.34Zm3.3-6.94a.96.96 0 1 1 1.93 0 .96.96 0 0 1-1.92 0Z" fill="#fff"/></svg>